<svg width="90" height="90" viewBox="0 0 90 90" fill="none" xmlns="http://www.w3.org/2000/svg">
<g clip-path="url(#clip0)">
<path d="M45 0C20.1472 0 0 20.1472 0 45C0 69.8528 20.1472 90 45 90C69.8528 90 90 69.8528 90 45C90 20.1472 69.8528 0 45 0Z" fill="#3C5959"/>
<path d="M45 0C43.5544 0 42.1256 0.0710156 40.715 0.204258C63.5574 2.3625 81.43 21.5928 81.43 45C81.43 68.4072 63.5574 87.6375 40.715 89.7957C42.1256 89.929 43.5544 90 45 90C69.8528 90 90 69.8528 90 45C90 20.1472 69.8528 0 45 0V0Z" fill="#394949"/>
<path d="M45 7.8024C24.4565 7.8024 7.80243 24.4564 7.80243 45C7.80243 65.5435 24.4565 82.1976 45 82.1976C65.5436 82.1976 82.1976 65.5435 82.1976 45C82.1976 24.4564 65.5436 7.8024 45 7.8024Z" fill="white"/>
<path d="M36.1879 53.8928C34.8188 52.5236 34.8188 50.3039 36.1879 48.9349L52.7868 32.336C58.377 26.7456 64.4247 21.5295 70.7812 16.8147C71.4897 16.2891 72.4752 16.3582 73.099 16.9819C73.7227 17.6055 73.7918 18.5911 73.2662 19.2997C68.5512 25.6562 63.3351 31.7037 57.7447 37.2941L41.1459 53.893C39.7767 55.2618 37.5569 55.2618 36.1879 53.8928Z" fill="#3295FF"/>
<path d="M74.0922 45C74.0922 45.0304 74.0911 45.0605 74.0909 45.0907H82.1964C82.1965 45.0603 82.1976 45.0302 82.1976 45C82.1976 35.4334 78.5849 26.7115 72.6511 20.1208C71.0002 22.3168 69.29 24.4751 67.525 26.589C71.6289 31.6042 74.0922 38.0141 74.0922 45Z" fill="#7FD061"/>
<path d="M63.501 22.5476C65.6137 20.784 67.7705 19.0751 69.9653 17.4254C63.3647 11.4456 54.608 7.8024 45 7.8024V15.9078C52.0274 15.9078 58.4728 18.3995 63.501 22.5476Z" fill="#FFC107"/>
<path d="M45 15.9078V7.8024C34.705 7.8024 25.3876 11.9851 18.6525 18.7432L24.3839 24.4745C29.6522 19.1834 36.9434 15.9078 45 15.9078Z" fill="#FCE25C"/>
<path d="M15.9079 45C15.9079 36.9895 19.1459 29.7357 24.3839 24.4747L18.6525 18.7434C11.9477 25.4711 7.80243 34.7513 7.80243 45C7.80243 45.0304 7.80348 45.0605 7.80366 45.0907H15.9091C15.9089 45.0605 15.9079 45.0304 15.9079 45Z" fill="#FC5327"/>
<path d="M45 51.1135C48.3319 51.1135 51.033 48.4124 51.033 45.0805C51.033 41.7486 48.3319 39.0475 45 39.0475C41.668 39.0475 38.967 41.7486 38.967 45.0805C38.967 48.4124 41.668 51.1135 45 51.1135Z" fill="#FFC107"/>
<path d="M53.57 74.6958H36.4299C35.6799 74.6958 35.0718 74.0877 35.0718 73.3377C35.0718 72.5876 35.6799 71.9796 36.4299 71.9796H53.57C54.3202 71.9796 54.9281 72.5876 54.9281 73.3377C54.9281 74.0877 54.3201 74.6958 53.57 74.6958Z" fill="#FFC107"/>
<path d="M53.57 67.9962H36.4299C35.6799 67.9962 35.0718 67.3882 35.0718 66.6381C35.0718 65.8881 35.6799 65.2801 36.4299 65.2801H53.57C54.3202 65.2801 54.9281 65.8881 54.9281 66.6381C54.9281 67.3882 54.3201 67.9962 53.57 67.9962Z" fill="#FFC107"/>
<path d="M82.1964 45.0907H74.0909C74.0689 52.2794 71.4394 58.8544 67.0989 63.9199C66.2409 64.9211 66.2876 66.41 67.22 67.3425L71.2406 71.3631C77.9878 64.6467 82.1717 55.3576 82.1964 45.0907Z" fill="#28A745"/>
<path d="M15.9091 45.0907H7.80365C7.82826 55.3574 12.0122 64.6465 18.7594 71.363L22.78 67.3423C23.7124 66.41 23.7593 64.9211 22.9012 63.9197C18.5606 58.8545 15.9311 52.2796 15.9091 45.0907Z" fill="#84878A"/>
</g>
<defs>
<clipPath id="clip0">
<rect width="90" height="90" fill="white"/>
</clipPath>
</defs>
</svg>
